<svg width="69" height="75" viewBox="0 0 69 75" fill="none" xmlns="http://www.w3.org/2000/svg">
<path fill-rule="evenodd" clip-rule="evenodd" d="M35.3168 12.7266C31.1768 12.7266 28.5603 14.7509 27.0164 17.3406C25.6623 19.6121 25.1343 22.3057 25.0361 24.4453H24.7078H24.5922L24.482 24.4801C20.5007 25.7366 17.9852 28.8642 16.4775 31.8923C14.975 34.9098 14.4097 37.9533 14.4097 39.2578V39.2762V39.2946V39.3132V39.3318V39.3506V39.3694V39.3884V39.4074V39.4265V39.4458V39.4651V39.4845V39.504V39.5237V39.5434V39.5632V39.583V39.603V39.6231V39.6433V39.6635V39.6839V39.7043V39.7249V39.7455V39.7662V39.787V39.8079V39.8289V39.85V39.8711V39.8924V39.9137V39.9352V39.9567V39.9783V40V40.0217V40.0436V40.0656V40.0876V40.1097V40.1319V40.1542V40.1766V40.199V40.2216V40.2442V40.2669V40.2897V40.3126V40.3356V40.3586V40.3817V40.4049V40.4282V40.4516V40.475V40.4985V40.5222V40.5458V40.5696V40.5934V40.6174V40.6414V40.6654V40.6896V40.7138V40.7381V40.7625V40.787V40.8115V40.8361V40.8608V40.8856V40.9104V40.9354V40.9603V40.9854V41.0105V41.0358V41.061V41.0864V41.1118V41.1373V41.1629V41.1885V41.2142V41.24V41.2659V41.2918V41.3178V41.3439V41.37V41.3962V41.4225V41.4488V41.4752V41.5017V41.5282V41.5548V41.5815V41.6082V41.635V41.6619V41.6889V41.7159V41.7429V41.7701V41.7972V41.8245V41.8518V41.8792V41.9067V41.9342V41.9617V41.9894V42.0171V42.0448V42.0727V42.1005V42.1285V42.1565V42.1845V42.2127V42.2408V42.2691V42.2974V42.3257V42.3541V42.3826V42.4111V42.4397V42.4683V42.497V42.5258V42.5546V42.5835V42.6124V42.6413V42.6704V42.6995V42.7286V42.7578V42.787V42.8163V42.8456V42.875V42.9045V42.934V42.9636V42.9932V43.0228V43.0525V43.0823V43.1121V43.1419V43.1718V43.2018V43.2318V43.2618V43.2919V43.3221V43.3522V43.3825V43.4128V43.4431V43.4735V43.5039V43.5344V43.5649V43.5954V43.626V43.6567V43.6873V43.7181V43.7488V43.7797V43.8105V43.8414V43.8724V43.9033V43.9344V43.9654V43.9965V44.0277V44.0589V44.0901V44.1214V44.1527V44.184V44.2154V44.2468V44.2783V44.3098V44.3413V44.3729V44.4045V44.4361V44.4678V44.4995V44.5312V44.563V44.5948V44.6267V44.6586V44.6905V44.7224V44.7544V44.7864V44.8185V44.8506V44.8827V44.9148V44.947V44.9792V45.0114V45.0437V45.076V45.1083V45.1407V45.1731V45.2055V45.2379V45.2704V45.3029V45.3354V45.368V45.4005V45.4331V45.4658V45.4984V45.5311V45.5638V45.5965V45.6293V45.6621V45.6949V45.7277V45.7606V45.7934V45.8263V45.8592V45.8922V45.9251V45.9581V45.9911V46.0242V46.0572V46.0903V46.1234V46.1565V46.1896V46.2227V46.2559V46.2891V46.3223V46.3555V46.3887V46.422V46.4552V46.4885V46.5218V46.5551V46.5884V46.6218V46.6551V46.6885V46.7219V46.7553V46.7887V46.8221V46.8556V46.889V46.9225V46.956V46.9895V47.023V47.0565V47.09V47.1235V47.1571V47.1906V47.2242V47.2577V47.2913V47.3249V47.3585V47.3921V47.4257V47.4593V47.493V47.5266V47.5602V47.5939V47.6275V47.6612V47.6948V47.7285V47.7622V47.7958V47.8295V47.8632V47.8969V47.9306V47.9643V47.9979V48.0316V48.0653V48.099V48.1327V48.1664V48.2001V48.2338V48.2675V48.3012V48.3349V48.3686V48.4023V48.436V48.4697V48.5033V48.537V48.5707V48.6044V48.6381V48.6717V48.7054V48.739V48.7727V48.8063V48.84V48.8736V48.9072V48.9409V48.9745V49.0081V49.0417V49.0753V49.1089V49.1425V49.176V49.2096V49.2431V49.2767V49.3102V49.3437V49.3772V49.4107V49.4442V49.4777V49.5111V49.5446V49.578V49.6115V49.6449V49.6783V49.7116V49.745V49.7784V49.8117V49.845V49.8783V49.9116V49.9449V49.9782V50.0114V50.0447V50.0779V50.1111V50.1442V50.1774V50.2105V50.2436V50.2767V50.3098V50.3429V50.3759V50.4089V50.4419V50.4749V50.5079V50.5408V50.5737V50.6066V50.6395V50.6723V50.7052V50.7379V50.7707V50.8035V50.8362V50.8689V50.9016V50.9342V50.9668V50.9994V51.032V51.0646V51.0971V51.1296V51.162V51.1945V51.2269V51.2593V51.2916V51.3239V51.3562V51.3885V51.4207V51.4529V51.4851V51.5172V51.5493V51.5814V51.6134V51.6454V51.6774V51.7094V51.7413V51.7731V51.805V51.8368V51.8686V51.9003V51.932V51.9637V51.9953V52.0269V52.0585V52.09V52.1215V52.1529V52.1843V52.2157V52.247V52.2783V52.3096V52.3408V52.372V52.4031V52.4342V52.4653V52.4963V52.5273V52.5582V52.5891V52.6199V52.6507V52.6815V52.7122V52.7429V52.7735V52.8041V52.8347V52.8652V52.8956V52.926V52.9564V52.9867V53.017V53.0472V53.0774V53.1075V53.1376V53.1676V53.1976V53.2276V53.2575V53.2873V53.3171V53.3468V53.3765V53.4062V53.4358V53.4653V53.4948V53.5242V53.5536V53.583V53.6122V53.6415V53.6706V53.6998V53.7288V53.7578V53.7868V53.8157V53.8446V53.8733V53.9021V53.9308V53.9594V53.988V54.0165V54.0449V54.0733V54.1017V54.13V54.1582V54.1863V54.2144V54.2425V54.2705V54.2984V54.3263V54.3541V54.3818V54.4095V54.4371V54.4647V54.4922C14.4097 57.143 15.8237 59.0064 17.504 60.2261C19.1675 61.4337 21.1425 62.0549 22.4691 62.2643L22.5044 62.2698L22.54 62.272C25.732 62.4679 30.8364 62.7029 35.7838 62.7714C40.7043 62.8396 45.5526 62.7454 48.1833 62.261C50.8213 61.7754 52.8353 60.8492 54.1965 59.5091C55.5735 58.1533 56.2239 56.4307 56.2239 54.4922V54.4784V54.4645V54.4506V54.4365V54.4224V54.4081V54.3938V54.3794V54.3649V54.3503V54.3356V54.3209V54.306V54.2911V54.276V54.2609V54.2457V54.2304V54.215V54.1995V54.1839V54.1683V54.1525V54.1367V54.1208V54.1048V54.0887V54.0725V54.0563V54.0399V54.0235V54.007V53.9903V53.9737V53.9569V53.94V53.9231V53.906V53.8889V53.8717V53.8544V53.837V53.8196V53.802V53.7844V53.7667V53.7489V53.731V53.7131V53.695V53.6769V53.6587V53.6404V53.622V53.6036V53.5851V53.5664V53.5477V53.529V53.5101V53.4911V53.4721V53.453V53.4338V53.4146V53.3952V53.3758V53.3563V53.3367V53.317V53.2973V53.2775V53.2576V53.2376V53.2175V53.1974V53.1772V53.1569V53.1365V53.116V53.0955V53.0749V53.0542V53.0334V53.0126V52.9917V52.9707V52.9496V52.9285V52.9072V52.886V52.8646V52.8431V52.8216V52.8V52.7783V52.7566V52.7347V52.7128V52.6909V52.6688V52.6467V52.6245V52.6022V52.5799V52.5574V52.5349V52.5124V52.4897V52.467V52.4442V52.4214V52.3984V52.3754V52.3524V52.3292V52.306V52.2827V52.2593V52.2359V52.2124V52.1888V52.1652V52.1415V52.1177V52.0938V52.0699V52.0459V52.0218V51.9977V51.9735V51.9492V51.9249V51.9005V51.876V51.8514V51.8268V51.8021V51.7774V51.7525V51.7276V51.7027V51.6777V51.6526V51.6274V51.6022V51.5769V51.5515V51.5261V51.5006V51.475V51.4494V51.4237V51.398V51.3721V51.3463V51.3203V51.2943V51.2682V51.2421V51.2159V51.1896V51.1632V51.1368V51.1104V51.0838V51.0572V51.0306V51.0039V50.9771V50.9502V50.9233V50.8964V50.8693V50.8422V50.8151V50.7879V50.7606V50.7332V50.7058V50.6784V50.6509V50.6233V50.5956V50.5679V50.5402V50.5123V50.4844V50.4565V50.4285V50.4004V50.3723V50.3441V50.3159V50.2876V50.2592V50.2308V50.2023V50.1738V50.1452V50.1166V50.0879V50.0591V50.0303V50.0014V49.9725V49.9435V49.9144V49.8853V49.8562V49.827V49.7977V49.7684V49.739V49.7095V49.68V49.6505V49.6209V49.5912V49.5615V49.5318V49.5019V49.4721V49.4421V49.4122V49.3821V49.352V49.3219V49.2917V49.2614V49.2311V49.2008V49.1704V49.1399V49.1094V49.0789V49.0482V49.0176V48.9869V48.9561V48.9253V48.8944V48.8635V48.8325V48.8015V48.7704V48.7393V48.7082V48.6769V48.6457V48.6143V48.583V48.5516V48.5201V48.4886V48.457V48.4254V48.3938V48.3621V48.3303V48.2985V48.2667V48.2348V48.2028V48.1708V48.1388V48.1067V48.0746V48.0424V48.0102V47.9779V47.9456V47.9132V47.8808V47.8484V47.8159V47.7833V47.7508V47.7181V47.6855V47.6527V47.62V47.5872V47.5543V47.5214V47.4885V47.4555V47.4225V47.3894V47.3563V47.3232V47.29V47.2567V47.2234V47.1901V47.1568V47.1234V47.0899V47.0564V47.0229V46.9893V46.9557V46.9221V46.8884V46.8547V46.8209V46.7871V46.7532V46.7193V46.6854V46.6514V46.6174V46.5834V46.5493V46.5152V46.481V46.4468V46.4126V46.3783V46.344V46.3096V46.2753V46.2408V46.2064V46.1719V46.1373V46.1028V46.0681V46.0335V45.9988V45.9641V45.9293V45.8946V45.8597V45.8249V45.79V45.7551V45.7201V45.6851V45.6501V45.615V45.5799V45.5448V45.5096V45.4744V45.4392V45.4039V45.3686V45.3332V45.2979V45.2625V45.227V45.1916V45.1561V45.1206V45.085V45.0494V45.0138V44.9781V44.9424V44.9067V44.871V44.8352V44.7994V44.7636V44.7277V44.6918V44.6559V44.6199V44.5839V44.5479V44.5119V44.4758V44.4397V44.4036V44.3674V44.3312V44.295V44.2588V44.2225V44.1862V44.1499V44.1135V44.0771V44.0407V44.0043V43.9678V43.9314V43.8949V43.8583V43.8218V43.7852V43.7486V43.7119V43.6752V43.6386V43.6018V43.5651V43.5283V43.4916V43.4547V43.4179V43.381V43.3442V43.3073V43.2703V43.2334V43.1964V43.1594V43.1224V43.0853V43.0483V43.0112V42.9741V42.9369V42.8998V42.8626V42.8254V42.7882V42.7509V42.7137V42.6764V42.6391V42.6018V42.5644V42.5271V42.4897V42.4523V42.4149V42.3774V42.34V42.3025V42.265V42.2275V42.19V42.1524V42.1148V42.0773V42.0397V42.002V41.9644V41.9267V41.8891V41.8514V41.8137V41.7759V41.7382V41.7004V41.6627V41.6249V41.5871V41.5492V41.5114V41.4736V41.4357V41.3978V41.3599V41.322V41.2841V41.2461V41.2082V41.1702V41.1322V41.0942V41.0562V41.0182V40.9802V40.9421V40.9041V40.866V40.8279V40.7898V40.7517V40.7136V40.6755V40.6373V40.5992V40.561V40.5228V40.4846V40.4464V40.4082V40.37V40.3318V40.2935V40.2553V40.217V40.1787V40.1404V40.1022V40.0639V40.0256V39.9872V39.9489V39.9106V39.8722V39.8339V39.7955V39.7572V39.7188V39.6804V39.642V39.6036V39.5652V39.5268V39.4884V39.45V39.4116V39.3731V39.3347V39.2963V39.2578C56.2239 32.3464 51.7541 26.9506 46.2289 24.5093L46.0841 24.4453H45.9258H44.5997C44.6441 22.571 44.2828 19.964 43.1494 17.6838C41.8169 15.0028 39.3799 12.7266 35.3168 12.7266ZM43.7956 25.9453C43.8018 25.9454 43.808 25.9454 43.8141 25.9453H45.7656C50.7815 28.22 54.7239 33.1026 54.7239 39.2578V39.2963V39.3347V39.3731V39.4116V39.45V39.4884V39.5268V39.5652V39.6036V39.642V39.6804V39.7188V39.7572V39.7955V39.8339V39.8722V39.9106V39.9489V39.9872V40.0256V40.0639V40.1022V40.1404V40.1787V40.217V40.2553V40.2935V40.3318V40.37V40.4082V40.4464V40.4846V40.5228V40.561V40.5992V40.6373V40.6755V40.7136V40.7517V40.7898V40.8279V40.866V40.9041V40.9421V40.9802V41.0182V41.0562V41.0942V41.1322V41.1702V41.2082V41.2461V41.2841V41.322V41.3599V41.3978V41.4357V41.4736V41.5114V41.5492V41.5871V41.6249V41.6627V41.7004V41.7382V41.7759V41.8137V41.8514V41.8891V41.9267V41.9644V42.002V42.0397V42.0773V42.1148V42.1524V42.19V42.2275V42.265V42.3025V42.34V42.3774V42.4149V42.4523V42.4897V42.5271V42.5644V42.6018V42.6391V42.6764V42.7137V42.7509V42.7882V42.8254V42.8626V42.8998V42.9369V42.9741V43.0112V43.0483V43.0853V43.1224V43.1594V43.1964V43.2334V43.2703V43.3073V43.3442V43.381V43.4179V43.4547V43.4916V43.5283V43.5651V43.6018V43.6386V43.6752V43.7119V43.7486V43.7852V43.8218V43.8583V43.8949V43.9314V43.9678V44.0043V44.0407V44.0771V44.1135V44.1499V44.1862V44.2225V44.2588V44.295V44.3312V44.3674V44.4036V44.4397V44.4758V44.5119V44.5479V44.5839V44.6199V44.6559V44.6918V44.7277V44.7636V44.7994V44.8352V44.871V44.9067V44.9424V44.9781V45.0138V45.0494V45.085V45.1206V45.1561V45.1916V45.227V45.2625V45.2979V45.3332V45.3686V45.4039V45.4392V45.4744V45.5096V45.5448V45.5799V45.615V45.6501V45.6851V45.7201V45.7551V45.79V45.8249V45.8597V45.8946V45.9293V45.9641V45.9988V46.0335V46.0681V46.1028V46.1373V46.1719V46.2064V46.2408V46.2753V46.3096V46.344V46.3783V46.4126V46.4468V46.481V46.5152V46.5493V46.5834V46.6174V46.6514V46.6854V46.7193V46.7532V46.7871V46.8209V46.8547V46.8884V46.9221V46.9557V46.9893V47.0229V47.0564V47.0899V47.1234V47.1568V47.1901V47.2234V47.2567V47.29V47.3232V47.3563V47.3894V47.4225V47.4555V47.4885V47.5214V47.5543V47.5872V47.62V47.6527V47.6855V47.7181V47.7508V47.7833V47.8159V47.8484V47.8808V47.9132V47.9456V47.9779V48.0102V48.0424V48.0746V48.1067V48.1388V48.1708V48.2028V48.2348V48.2667V48.2985V48.3303V48.3621V48.3938V48.4254V48.457V48.4886V48.5201V48.5516V48.583V48.6143V48.6457V48.6769V48.7082V48.7393V48.7704V48.8015V48.8325V48.8635V48.8944V48.9253V48.9561V48.9869V49.0176V49.0482V49.0789V49.1094V49.1399V49.1704V49.2008V49.2311V49.2614V49.2917V49.3219V49.352V49.3821V49.4122V49.4421V49.4721V49.5019V49.5318V49.5615V49.5912V49.6209V49.6505V49.68V49.7095V49.739V49.7684V49.7977V49.827V49.8562V49.8853V49.9144V49.9435V49.9725V50.0014V50.0303V50.0591V50.0879V50.1166V50.1452V50.1738V50.2023V50.2308V50.2592V50.2876V50.3159V50.3441V50.3723V50.4004V50.4285V50.4565V50.4844V50.5123V50.5402V50.5679V50.5956V50.6233V50.6509V50.6784V50.7058V50.7332V50.7606V50.7879V50.8151V50.8422V50.8693V50.8964V50.9233V50.9502V50.9771V51.0039V51.0306V51.0572V51.0838V51.1104V51.1368V51.1632V51.1896V51.2159V51.2421V51.2682V51.2943V51.3203V51.3463V51.3721V51.398V51.4237V51.4494V51.475V51.5006V51.5261V51.5515V51.5769V51.6022V51.6274V51.6526V51.6777V51.7027V51.7276V51.7525V51.7774V51.8021V51.8268V51.8514V51.876V51.9005V51.9249V51.9492V51.9735V51.9977V52.0218V52.0459V52.0699V52.0938V52.1177V52.1415V52.1652V52.1888V52.2124V52.2359V52.2593V52.2827V52.306V52.3292V52.3524V52.3754V52.3984V52.4214V52.4442V52.467V52.4897V52.5124V52.5349V52.5574V52.5799V52.6022V52.6245V52.6467V52.6688V52.6909V52.7128V52.7347V52.7566V52.7783V52.8V52.8216V52.8431V52.8646V52.886V52.9072V52.9285V52.9496V52.9707V52.9917V53.0126V53.0334V53.0542V53.0749V53.0955V53.116V53.1365V53.1569V53.1772V53.1974V53.2175V53.2376V53.2576V53.2775V53.2973V53.317V53.3367V53.3563V53.3758V53.3952V53.4146V53.4338V53.453V53.4721V53.4911V53.5101V53.529V53.5477V53.5664V53.5851V53.6036V53.622V53.6404V53.6587V53.6769V53.695V53.7131V53.731V53.7489V53.7667V53.7844V53.802V53.8196V53.837V53.8544V53.8717V53.8889V53.906V53.9231V53.94V53.9569V53.9737V53.9903V54.007V54.0235V54.0399V54.0563V54.0725V54.0887V54.1048V54.1208V54.1367V54.1525V54.1683V54.1839V54.1995V54.215V54.2304V54.2457V54.2609V54.276V54.2911V54.306V54.3209V54.3356V54.3503V54.3649V54.3794V54.3938V54.4081V54.4224V54.4365V54.4506V54.4645V54.4784V54.4922C54.7239 56.0693 54.2072 57.3936 53.1441 58.4402C52.0653 59.5023 50.3661 60.334 47.9118 60.7858C45.4502 61.239 40.7504 61.3401 35.8046 61.2716C30.9043 61.2036 25.8442 60.9714 22.6684 60.7771C21.5194 60.5903 19.8016 60.0404 18.3851 59.0122C16.971 57.9857 15.9097 56.5289 15.9097 54.4922V54.4647V54.4371V54.4095V54.3818V54.3541V54.3263V54.2984V54.2705V54.2425V54.2144V54.1863V54.1582V54.13V54.1017V54.0733V54.0449V54.0165V53.988V53.9594V53.9308V53.9021V53.8733V53.8446V53.8157V53.7868V53.7578V53.7288V53.6998V53.6706V53.6415V53.6122V53.583V53.5536V53.5242V53.4948V53.4653V53.4358V53.4062V53.3765V53.3468V53.3171V53.2873V53.2575V53.2276V53.1976V53.1676V53.1376V53.1075V53.0774V53.0472V53.017V52.9867V52.9564V52.926V52.8956V52.8652V52.8347V52.8041V52.7735V52.7429V52.7122V52.6815V52.6507V52.6199V52.5891V52.5582V52.5273V52.4963V52.4653V52.4342V52.4031V52.372V52.3408V52.3096V52.2783V52.247V52.2157V52.1843V52.1529V52.1215V52.09V52.0585V52.0269V51.9953V51.9637V51.932V51.9003V51.8686V51.8368V51.805V51.7731V51.7413V51.7094V51.6774V51.6454V51.6134V51.5814V51.5493V51.5172V51.4851V51.4529V51.4207V51.3885V51.3562V51.3239V51.2916V51.2593V51.2269V51.1945V51.162V51.1296V51.0971V51.0646V51.032V50.9994V50.9668V50.9342V50.9016V50.8689V50.8362V50.8035V50.7707V50.7379V50.7052V50.6723V50.6395V50.6066V50.5737V50.5408V50.5079V50.4749V50.4419V50.4089V50.3759V50.3429V50.3098V50.2767V50.2436V50.2105V50.1774V50.1442V50.1111V50.0779V50.0447V50.0114V49.9782V49.9449V49.9116V49.8783V49.845V49.8117V49.7784V49.745V49.7116V49.6783V49.6449V49.6115V49.578V49.5446V49.5111V49.4777V49.4442V49.4107V49.3772V49.3437V49.3102V49.2767V49.2431V49.2096V49.176V49.1425V49.1089V49.0753V49.0417V49.0081V48.9745V48.9409V48.9072V48.8736V48.84V48.8063V48.7727V48.739V48.7054V48.6717V48.6381V48.6044V48.5707V48.537V48.5033V48.4697V48.436V48.4023V48.3686V48.3349V48.3012V48.2675V48.2338V48.2001V48.1664V48.1327V48.099V48.0653V48.0316V47.9979V47.9643V47.9306V47.8969V47.8632V47.8295V47.7958V47.7622V47.7285V47.6948V47.6612V47.6275V47.5939V47.5602V47.5266V47.493V47.4593V47.4257V47.3921V47.3585V47.3249V47.2913V47.2577V47.2242V47.1906V47.1571V47.1235V47.09V47.0565V47.023V46.9895V46.956V46.9225V46.889V46.8556V46.8221V46.7887V46.7553V46.7219V46.6885V46.6551V46.6218V46.5884V46.5551V46.5218V46.4885V46.4552V46.422V46.3887V46.3555V46.3223V46.2891V46.2559V46.2227V46.1896V46.1565V46.1234V46.0903V46.0572V46.0242V45.9911V45.9581V45.9251V45.8922V45.8592V45.8263V45.7934V45.7606V45.7277V45.6949V45.6621V45.6293V45.5965V45.5638V45.5311V45.4984V45.4658V45.4331V45.4005V45.368V45.3354V45.3029V45.2704V45.2379V45.2055V45.1731V45.1407V45.1083V45.076V45.0437V45.0114V44.9792V44.947V44.9148V44.8827V44.8506V44.8185V44.7864V44.7544V44.7224V44.6905V44.6586V44.6267V44.5948V44.563V44.5312V44.4995V44.4678V44.4361V44.4045V44.3729V44.3413V44.3098V44.2783V44.2468V44.2154V44.184V44.1527V44.1214V44.0901V44.0589V44.0277V43.9965V43.9654V43.9344V43.9033V43.8724V43.8414V43.8105V43.7797V43.7488V43.7181V43.6873V43.6567V43.626V43.5954V43.5649V43.5344V43.5039V43.4735V43.4431V43.4128V43.3825V43.3522V43.3221V43.2919V43.2618V43.2318V43.2018V43.1718V43.1419V43.1121V43.0823V43.0525V43.0228V42.9932V42.9636V42.934V42.9045V42.875V42.8456V42.8163V42.787V42.7578V42.7286V42.6995V42.6704V42.6413V42.6124V42.5835V42.5546V42.5258V42.497V42.4683V42.4397V42.4111V42.3826V42.3541V42.3257V42.2974V42.2691V42.2408V42.2127V42.1845V42.1565V42.1285V42.1005V42.0727V42.0448V42.0171V41.9894V41.9617V41.9342V41.9067V41.8792V41.8518V41.8245V41.7972V41.7701V41.7429V41.7159V41.6889V41.6619V41.635V41.6082V41.5815V41.5548V41.5282V41.5017V41.4752V41.4488V41.4225V41.3962V41.37V41.3439V41.3178V41.2918V41.2659V41.24V41.2142V41.1885V41.1629V41.1373V41.1118V41.0864V41.061V41.0358V41.0105V40.9854V40.9603V40.9354V40.9104V40.8856V40.8608V40.8361V40.8115V40.787V40.7625V40.7381V40.7138V40.6896V40.6654V40.6414V40.6174V40.5934V40.5696V40.5458V40.5222V40.4985V40.475V40.4516V40.4282V40.4049V40.3817V40.3586V40.3356V40.3126V40.2897V40.2669V40.2442V40.2216V40.199V40.1766V40.1542V40.1319V40.1097V40.0876V40.0656V40.0436V40.0217V40V39.9783V39.9567V39.9352V39.9137V39.8924V39.8711V39.85V39.8289V39.8079V39.787V39.7662V39.7455V39.7249V39.7043V39.6839V39.6635V39.6433V39.6231V39.603V39.583V39.5632V39.5434V39.5237V39.504V39.4845V39.4651V39.4458V39.4265V39.4074V39.3884V39.3694V39.3506V39.3318V39.3132V39.2946V39.2762V39.2578C15.9097 38.2186 16.4053 35.4027 17.8202 32.5609C19.2152 29.7593 21.4412 27.0551 24.8254 25.9453H25.7675C25.7679 25.9453 25.7683 25.9453 25.7687 25.9453C25.7691 25.9453 25.7695 25.9453 25.7699 25.9453H43.7956ZM43.0994 24.4453C43.1445 22.7799 42.823 20.3972 41.8062 18.3514C40.6633 16.0519 38.6799 14.2266 35.3168 14.2266C31.7712 14.2266 29.6137 15.9131 28.3049 18.1087C27.1258 20.0864 26.636 22.4886 26.5378 24.4453H43.0994Z" fill="white"/>
</svg>
