<svg width="28" height="20" viewBox="0 0 28 20" fill="none" xmlns="http://www.w3.org/2000/svg">
<path d="M23.3566 1.65789C21.6358 0.890525 19.7904 0.325164 17.8609 0.00135832C17.8257 -0.00489103 17.7906 0.0107264 17.7725 0.0419621C17.5352 0.452184 17.2723 0.987351 17.0882 1.40799C15.013 1.10606 12.9483 1.10606 10.9156 1.40799C10.7315 0.978001 10.459 0.452184 10.2206 0.0419621C10.2025 0.0117686 10.1674 -0.00384885 10.1323 0.00135832C8.2039 0.324129 6.35851 0.88949 4.63655 1.65789C4.62164 1.66414 4.60887 1.67456 4.60039 1.68808C1.10007 6.77013 0.141181 11.7273 0.611578 16.6229C0.613706 16.6469 0.627541 16.6698 0.646698 16.6843C2.95611 18.3325 5.19317 19.3331 7.38869 19.9964C7.42383 20.0068 7.46106 19.9943 7.48342 19.9662C8.00277 19.2769 8.46572 18.5502 8.86266 17.7859C8.88609 17.7412 8.86372 17.688 8.81585 17.6703C8.08152 17.3996 7.3823 17.0696 6.7097 16.6948C6.65649 16.6646 6.65224 16.5906 6.70118 16.5552C6.84272 16.4521 6.9843 16.3449 7.11945 16.2366C7.1439 16.2168 7.17797 16.2127 7.20672 16.2252C11.6254 18.1857 16.4092 18.1857 20.7758 16.2252C20.8046 16.2116 20.8386 16.2158 20.8642 16.2356C20.9994 16.3439 21.1409 16.4521 21.2835 16.5552C21.3324 16.5906 21.3292 16.6646 21.276 16.6948C20.6034 17.0769 19.9042 17.3996 19.1688 17.6693C19.1209 17.687 19.0997 17.7412 19.1231 17.7859C19.5285 18.5491 19.9915 19.2759 20.5013 19.9651C20.5226 19.9943 20.5608 20.0068 20.596 19.9964C22.8022 19.3331 25.0392 18.3325 27.3486 16.6843C27.3688 16.6698 27.3816 16.6479 27.3837 16.624C27.9467 10.964 26.4408 6.04755 23.3917 1.68912C23.3843 1.67456 23.3715 1.66414 23.3566 1.65789ZM9.52253 13.642C8.19219 13.642 7.09602 12.455 7.09602 10.9974C7.09602 9.53969 8.17093 8.35275 9.52253 8.35275C10.8847 8.35275 11.9703 9.55011 11.949 10.9974C11.949 12.455 10.8741 13.642 9.52253 13.642ZM18.4941 13.642C17.1638 13.642 16.0676 12.455 16.0676 10.9974C16.0676 9.53969 17.1425 8.35275 18.4941 8.35275C19.8563 8.35275 20.9419 9.55011 20.9206 10.9974C20.9206 12.455 19.8563 13.642 18.4941 13.642Z" fill="#D9D9D9"/>
</svg>
