<svg width="69" height="75" viewBox="0 0 69 75" fill="none" xmlns="http://www.w3.org/2000/svg">
<path fill-rule="evenodd" clip-rule="evenodd" d="M45.7 26.5869C45.7 33.4711 40.6962 38.7832 34.8386 38.7832C28.981 38.7832 23.9772 33.4711 23.9772 26.5869C23.9772 19.7027 28.981 14.3906 34.8386 14.3906C40.6962 14.3906 45.7 19.7027 45.7 26.5869ZM47.2 26.5869C47.2 34.1512 41.6656 40.2832 34.8386 40.2832C28.0116 40.2832 22.4772 34.1512 22.4772 26.5869C22.4772 19.0227 28.0116 12.8906 34.8386 12.8906C41.6656 12.8906 47.2 19.0227 47.2 26.5869ZM18.3584 49.2031C18.3584 48.0986 19.2538 47.2031 20.3584 47.2031H49.3188C50.4234 47.2031 51.3188 48.0986 51.3188 49.2031V58.6094C51.3188 59.7139 50.4234 60.6094 49.3188 60.6094H20.3584C19.2538 60.6094 18.3584 59.7139 18.3584 58.6094V49.2031ZM16.8584 49.2031C16.8584 47.2701 18.4254 45.7031 20.3584 45.7031H49.3188C51.2518 45.7031 52.8188 47.2701 52.8188 49.2031V58.6094C52.8188 60.5424 51.2518 62.1094 49.3188 62.1094H20.3584C18.4254 62.1094 16.8584 60.5424 16.8584 58.6094V49.2031Z" fill="white"/>
</svg>
