<svg width="32" height="32" viewBox="0 0 32 32" fill="none" xmlns="http://www.w3.org/2000/svg">
<path d="M11.6514 5.57343C10.5342 5.62614 9.77125 5.80444 9.10428 6.06652C8.41401 6.33553 7.82894 6.69652 7.24681 7.28074C6.66469 7.86496 6.30622 8.45044 6.03909 9.14177C5.78058 9.8102 5.60544 10.5738 5.55609 11.6916C5.50674 12.8094 5.49582 13.1687 5.50128 16.0201C5.50674 18.8715 5.51934 19.2289 5.57352 20.3491C5.62686 21.4661 5.80452 22.2288 6.0666 22.896C6.33604 23.5862 6.69661 24.1711 7.28104 24.7534C7.86548 25.3358 8.45055 25.6934 9.14355 25.9609C9.81136 26.219 10.5751 26.395 11.6928 26.4439C12.8104 26.4929 13.1701 26.5042 16.0207 26.4987C18.8713 26.4933 19.2302 26.4807 20.3501 26.4276C21.47 26.3744 22.2288 26.1955 22.8962 25.9347C23.5864 25.6646 24.1717 25.3047 24.7536 24.72C25.3356 24.1354 25.6938 23.5495 25.9607 22.8578C26.2195 22.19 26.3952 21.4262 26.4437 20.3094C26.4927 19.1886 26.5042 18.8308 26.4988 15.9798C26.4933 13.1288 26.4805 12.7714 26.4274 11.6517C26.3742 10.532 26.1964 9.77156 25.9345 9.10397C25.6646 8.41369 25.3045 7.82926 24.7203 7.24651C24.136 6.66376 23.5497 6.30571 22.8582 6.03943C22.1899 5.78092 21.4266 5.60472 20.3089 5.55642C19.1913 5.50812 18.8316 5.49573 15.98 5.50119C13.1283 5.50665 12.7713 5.51883 11.6514 5.57343ZM11.774 24.555C10.7503 24.5105 10.1944 24.3404 9.82396 24.198C9.3334 24.009 8.98395 23.7805 8.61477 23.4149C8.24558 23.0493 8.01878 22.6986 7.82726 22.2091C7.68341 21.8386 7.51016 21.2834 7.46228 20.2596C7.4102 19.1531 7.39928 18.8209 7.39319 16.0176C7.3871 13.2143 7.39781 12.8825 7.44632 11.7756C7.49 10.7527 7.66115 10.1962 7.80332 9.82595C7.99232 9.33476 8.21996 8.98595 8.58642 8.61698C8.95287 8.248 9.30253 8.02078 9.79246 7.82926C10.1625 7.68478 10.7177 7.513 11.7411 7.46428C12.8484 7.41178 13.1802 7.40128 15.9831 7.39519C18.786 7.3891 19.1187 7.3996 20.2264 7.44832C21.2493 7.49284 21.8061 7.66231 22.1759 7.80532C22.6666 7.99432 23.0159 8.22133 23.3848 8.58842C23.7538 8.9555 23.9813 9.30389 24.1728 9.79487C24.3175 10.1638 24.4892 10.7189 24.5375 11.7428C24.5903 12.8502 24.6022 13.1822 24.6073 15.9849C24.6123 18.7875 24.6024 19.1204 24.5539 20.2269C24.5092 21.2506 24.3395 21.8067 24.1969 22.1776C24.0079 22.6679 23.7801 23.0176 23.4134 23.3863C23.0467 23.7551 22.6975 23.9823 22.2074 24.1738C21.8378 24.3181 21.2819 24.4903 20.2594 24.539C19.152 24.5911 18.8202 24.602 16.0163 24.6081C13.2123 24.6142 12.8816 24.6029 11.7743 24.555M20.3339 10.3881C20.3344 10.6373 20.4087 10.8808 20.5475 11.0878C20.6863 11.2948 20.8834 11.456 21.1138 11.551C21.3442 11.6459 21.5976 11.6704 21.842 11.6214C22.0863 11.5723 22.3106 11.4519 22.4865 11.2753C22.6624 11.0988 22.782 10.874 22.8302 10.6295C22.8784 10.385 22.8529 10.1317 22.7571 9.90161C22.6613 9.67154 22.4994 9.47505 22.2919 9.337C22.0844 9.19894 21.8407 9.12552 21.5914 9.12602C21.2573 9.12668 20.9372 9.26002 20.7014 9.4967C20.4655 9.73338 20.3334 10.054 20.3339 10.3881ZM10.6087 16.0105C10.6146 18.9883 13.033 21.3968 16.0102 21.3911C18.9874 21.3854 21.3976 18.9673 21.3919 15.9895C21.3863 13.0117 18.9672 10.6025 15.9896 10.6084C13.012 10.6143 10.6031 13.0331 10.6087 16.0105ZM12.5 16.0067C12.4986 15.3144 12.7026 14.6373 13.086 14.061C13.4695 13.4846 14.0153 13.0349 14.6543 12.7688C15.2933 12.5026 15.9969 12.4319 16.6762 12.5656C17.3554 12.6993 17.9797 13.0314 18.4702 13.5199C18.9606 14.0085 19.2952 14.6315 19.4316 15.3101C19.568 15.9888 19.5001 16.6927 19.2364 17.3328C18.9728 17.9729 18.5253 18.5204 17.9504 18.9061C17.3756 19.2919 16.6993 19.4985 16.0071 19.4998C15.5474 19.5008 15.0921 19.4112 14.667 19.2362C14.242 19.0611 13.8556 18.8041 13.53 18.4797C13.2043 18.1553 12.9457 17.77 12.769 17.3457C12.5923 16.9213 12.5009 16.4663 12.5 16.0067Z" fill="#D9D9D9"/>
</svg>
