<svg width="69" height="75" viewBox="0 0 69 75" fill="none" xmlns="http://www.w3.org/2000/svg">
<path fill-rule="evenodd" clip-rule="evenodd" d="M45.8251 51.6023C42.4618 55.0908 37.9547 57.2066 33.0597 57.2066C22.8644 57.2066 14.3516 48.0281 14.3516 36.3845C14.3516 24.7409 22.8644 15.5625 33.0597 15.5625C43.255 15.5625 51.7679 24.7409 51.7679 36.3845C51.7679 41.8601 49.8852 46.7905 46.8304 50.4776L46.7519 50.391C46.4739 50.0839 45.9997 50.0603 45.6926 50.3383C45.3855 50.6163 45.3619 51.0906 45.6399 51.3977L45.8251 51.6023ZM46.8345 52.7172C43.2252 56.4331 38.3828 58.7066 33.0597 58.7066C21.8991 58.7066 12.8516 48.7126 12.8516 36.3845C12.8516 24.0564 21.8991 14.0625 33.0597 14.0625C44.2204 14.0625 53.2679 24.0564 53.2679 36.3845C53.2679 42.2642 51.2099 47.6129 47.8462 51.5997L54.8352 59.3198C55.1132 59.6268 55.0896 60.1011 54.7825 60.3791C54.4755 60.6571 54.0012 60.6335 53.7232 60.3265L46.8345 52.7172Z" fill="white"/>
</svg>
