<svg width="32" height="32" viewBox="0 0 32 32" fill="none" xmlns="http://www.w3.org/2000/svg">
<path d="M25.1453 11.4811C25.1594 11.6763 25.1594 11.8716 25.1594 12.0687C25.1594 18.074 20.4127 25 11.7331 25V24.9964C9.16915 25 6.65844 24.2926 4.5 22.9589C4.87282 23.0021 5.24751 23.0237 5.62314 23.0246C7.74794 23.0264 9.812 22.3398 11.4836 21.0753C9.46441 21.0384 7.69374 19.7704 7.07518 17.9192C7.78251 18.0506 8.51133 18.0236 9.20559 17.841C7.00416 17.4126 5.42037 15.5497 5.42037 13.3862C5.42037 13.3664 5.42037 13.3475 5.42037 13.3286C6.07632 13.6805 6.81075 13.8758 7.56199 13.8974C5.48858 12.5628 4.84946 9.90615 6.10154 7.82908C8.49732 10.6684 12.0321 12.3945 15.8267 12.5772C15.4464 10.9987 15.9659 9.34459 17.1918 8.23496C19.0924 6.51427 22.0815 6.60246 23.868 8.43205C24.9248 8.23136 25.9377 7.85788 26.8646 7.32872C26.5124 8.38075 25.7751 9.27439 24.7903 9.84226C25.7256 9.73606 26.6394 9.49488 27.5 9.1268C26.8665 10.0411 26.0685 10.8376 25.1453 11.4811Z" fill="#D9D9D9"/>
</svg>
